<svg id="Слой_1" xmlns="http://www.w3.org/2000/svg" viewBox="0 0 120.8571396 40.25"><style>.st0{fill:#2466bc}.st1{fill:url(#SVGID_1_)}.st2{fill:url(#SVGID_2_)}.st3{fill:url(#SVGID_3_)}.st4{fill:#ea544e}</style><path class="st0" d="M50.833 4.125c4.924 0 7.397 3.79 7.397 7.52 0 3.732-2.473 7.48-7.397 7.48H45.43v-15h5.403zM50.43 15.26c3 0 3.995-2.074 3.995-4.035 0-1.962-1.077-4.1-3.592-4.1H48.43v8h2v.135zM67.43 8.482V7.125h4v12h-4V17.67c0 .98-1.765 1.3-2.874 1.3-3.667 0-5.486-2.94-5.465-6.117.044-3.155 1.74-5.756 5.47-5.756 1.13 0 2.87.426 2.87 1.385zm.31 4.5c0-1.536-1.174-2.794-2.624-2.794-1.705 0-2.558 1.343-2.58 2.75-.02 1.386.854 2.814 2.58 2.814 1.45 0 2.623-1.236 2.623-2.77zM74.987 2.79c1.024-.02 2.09.618 2.09 1.962 0 1.236-.96 1.854-1.94 1.876-1.024.02-2.09-.597-2.09-1.876 0-1.28.96-1.94 1.94-1.962zM73.43 7.125v12h3v-12h-3zM83.472 7.096c2.473 0 4.626 1.03 4.647 4.03H84.9c-.02-1-.916-1.045-1.62-1.045-.49 0-1.173.13-1.173.747 0 .597.896.597 1.386.618 2.41.065 4.86 1.077 4.86 3.806 0 2.9-2.366 3.967-4.924 3.967-2.75 0-4.84-1.092-4.883-4.092h3.368c.02 1 .832.996 1.6.996.873.022 1.47-.344 1.47-.75 0-.83-1.28-.746-1.833-.79-2.174-.19-4.434-.99-4.434-3.528 0-2.793 2.174-3.956 4.754-3.956zM95.73 10.895l1.43-3.77h3.27v.696c-2 4.798-3.59 9.305-5.467 14.305H91.43v-.447l1.663-3.795L89.43 7.82v-.695h3.21l1.428 3.77.81 2.92.852-2.92z"/><g><linearGradient id="SVGID_1_" gradientUnits="userSpaceOnUse" x1="13.759" y1="31.612" x2="29.579" y2="31.612" gradientTransform="matrix(1 0 0 -1 0 42.25)"><stop offset="0" stop-color="#7dd7ed"/><stop offset="1" stop-color="#2466bc"/></linearGradient><path class="st1" d="M6.177 7.556c2.214-.41 16.633-1.304 23.138 12.576 1.247-1.926 3.016-5.687 2.885-5.937-2.007-6.587-10.467-12.26-21.647-13.052C8.48 4.79 6.177 7.556 6.177 7.556z"/><linearGradient id="SVGID_2_" gradientUnits="userSpaceOnUse" x1="1.954" y1="26.321" x2="15.527" y2="26.321" gradientTransform="matrix(1 0 0 -1 0 42.25)"><stop offset="0" stop-color="#7dd7ed"/><stop offset="1" stop-color="#2466bc"/></linearGradient><path class="st2" d="M5.14 1.48S.175 8.373 2.643 28.84c.77 2.75 9.286 1.77 9.286 1.77-1.39.17-7.5-10.168-2.33-23.35 1.416-3.612 3.8-5.506 5.93-5.428C8.192.372 5.14 1.48 5.14 1.48z"/><linearGradient id="SVGID_3_" gradientUnits="userSpaceOnUse" x1="9.986" y1="18.745" x2="41.64" y2="18.745" gradientTransform="matrix(1 0 0 -1 0 42.25)"><stop offset="0" stop-color="#7dd7ed"/><stop offset="1" stop-color="#2466bc"/></linearGradient><path class="st3" d="M2.405 26.694s.634 7.275 2.537 9.24c.877.905 23.27 3.386 28.536-13.936.882-2.9.802-5.105-.53-7.573-1.353-2.505-2.77-4.013-2.77-4.013s2.19 3.558-1.273 9.485c-3.435 5.88-11.743 10.306-18.235 10.43-4.89.093-7.622-1.732-8.265-3.633z"/></g><g><path d="M44.43 23.125h9v1h-7v4h7v2h-7v4h8v2h-10v-13zM67.43 33.21v-6.085h-1v-1h1v-3h2v3h3v1h-3v5.9c0 1.166.646 1.592 1.61 1.592.48 0 .39-.092 1.39-.333v1.223c-1 .26-1.325.407-2.01.407-1.538 0-2.99-.76-2.99-2.704zM74.43 26.125h2v2.546c1-1.592 2-2.74 4-2.666v1.12h-.442c-2.093 0-3.56 1.918-3.56 4.807v4.195h-2v-10zM86.082 34.52c1.315 0 2.24-.433 3.02-1.248l.888.848c-.963 1.075-2.13 1.823-3.946 1.823-2.63 0-4.778-2.006-4.778-4.988 0-2.78 1.944-4.995 4.593-4.995 2.834 0 4.464 2.054 4.464 4.87 0 .13 0 .295-.02.295H82.71c.204 2 1.686 3.395 3.372 3.395zm2.797-4.395c-.168-2-1.168-3.223-3.058-3.223-1.648 0-2.908 1.223-3.112 3.223h6.17zM92.43 26.125h2v1.657c0-.945 1.39-1.815 3.003-1.815 1.556 0 2.512.833 3.03 1.908.686-1.056 1.723-1.908 3.39-1.908 2.204 0 3.576 1.48 3.576 3.853v6.305h-1v-5.972c0-1.853-1.362-2.89-2.918-2.89-1.445 0-3.083 1.075-3.083 2.964v5.898h-1v-6.01c0-1.796-.88-2.852-2.4-2.852s-2.6 1.26-2.6 3.02v5.842h-2v-10zM114.66 34.52c1.317 0 2.243-.433 3.02-1.248l.89.848c-.964 1.075-2.13 1.823-3.945 1.823-2.63 0-4.78-2.006-4.78-4.988 0-2.78 1.945-4.995 4.594-4.995 2.833 0 4.463 2.054 4.463 4.87 0 .13 0 .295-.018.295h-7.595c.204 2 1.686 3.395 3.37 3.395zm2.8-4.395c-.168-2-1.168-3.223-3.058-3.223-1.65 0-2.908 1.223-3.112 3.223h6.17z"/></g><g><path class="st4" d="M58.95 31.053l-3.263-4.928h2.94l1.803 2.814 1.822-2.815h2.867l-3.265 4.837 5.48 8.163h-2.94l-4.02-6.05-1.947 3.05H55.56l3.39-5.072z"/></g></svg>