<?xml version="1.0" encoding="utf-8"?>
<!-- Generator: Adobe Illustrator 19.2.0, SVG Export Plug-In . SVG Version: 6.00 Build 0)  -->
<svg version="1.1" id="Слой_1" xmlns="http://www.w3.org/2000/svg" xmlns:xlink="http://www.w3.org/1999/xlink" x="0px" y="0px"
	 viewBox="0 0 120.8571396 40.25" style="enable-background:new 0 0 120.8571396 40.25;" xml:space="preserve">
<style type="text/css">
	.st0{fill:#2466BC;}
	.st1{fill:url(#SVGID_1_);}
	.st2{fill:url(#SVGID_2_);}
	.st3{fill:url(#SVGID_3_);}
	.st4{fill:#EA544E;}
</style>
<g>
	<g>
		<path class="st0" d="M50.8325195,4.125c4.9245987,0,7.3974991,3.7902999,7.3974991,7.5214005
			c0,3.7307997-2.4729004,7.4785995-7.3974991,7.4785995h-5.4039497v-15H50.8325195z M50.4285698,15.2596045
			c3,0,3.9968758-2.0739021,3.9968758-4.0351019c0-1.9612999-1.0771255-4.0995026-3.592926-4.0995026h-2.4039497v8h2V15.2596045z"/>
		<path class="st0" d="M67.4285736,8.4824047V7.125h4v12h-4v-1.454195c0,0.9806004-1.7639313,1.300499-2.8721313,1.300499
			c-3.666996,0-5.4865608-2.9420986-5.4654579-6.1182995c0.0429993-3.1553993,1.7386436-5.7561998,5.4690437-5.7561998
			C65.6900253,7.0968046,67.4285736,7.5229049,67.4285736,8.4824047z M67.7386169,12.9806051
			c0-1.5349007-1.1725998-2.7927999-2.6222-2.7927999c-1.7053986,0-2.558197,1.3431997-2.5792961,2.7503996
			c-0.0214996,1.3855,0.8523979,2.8140001,2.5792961,2.8140001C66.5660172,15.7519045,67.7386169,14.5155048,67.7386169,12.9806051z
			"/>
		<path class="st0" d="M74.9873199,2.7903047c1.0233002-0.0214,2.0892029,0.6181002,2.0892029,1.9612999
			c0,1.2361002-0.9595032,1.8548002-1.9401016,1.8759003c-1.0233002,0.0212002-2.0892029-0.5969-2.0892029-1.8759003
			C73.0472183,3.4722047,74.0067215,2.8115048,74.9873199,2.7903047z M73.4285736,7.125v12h3v-12H73.4285736z"/>
		<path class="st0" d="M83.471817,7.0962024c2.4732056,0,4.626503,1.0287976,4.6476059,4.0287976h-3.219101
			c-0.0212021-1-0.9168015-1.0442972-1.6204987-1.0442972c-0.4904022,0-1.1725998,0.1281004-1.1725998,0.746501
			c0,0.5969,0.8952942,0.5968008,1.385498,0.6182003c2.4090958,0.0641003,4.8608017,1.0765505,4.8608017,3.8055506
			c0,2.8994989-2.3664017,3.9663725-4.9246063,3.9663725c-2.7503967,0-4.8392944-1.0923271-4.881897-4.0923271h3.3682022
			c0.0211945,1,0.8314972,0.9955025,1.598999,0.9955025c0.8741989,0.0214005,1.4710999-0.3442993,1.4710999-0.7491989
			c0-0.8311996-1.2790985-0.7476997-1.8334045-0.7902994c-2.1744003-0.1920004-4.4343948-0.9922504-4.4343948-3.5288506
			C78.7175217,8.2590532,80.8922195,7.0962024,83.471817,7.0962024z"/>
		<path class="st0" d="M95.730423,10.8950024L97.1588211,7.125h3.2697525v0.6963048
			c-2,4.7967-3.589653,9.3036957-5.46595,14.3036957h-3.53405v-0.4466953l1.6646957-3.794899L89.4285736,7.8210049V7.125h3.2108459
			l1.4281998,3.7698021l0.8103027,2.9203005L95.730423,10.8950024z"/>
	</g>
	<g>
		
			<linearGradient id="SVGID_1_" gradientUnits="userSpaceOnUse" x1="13.7590294" y1="31.6124458" x2="29.5789356" y2="31.6124458" gradientTransform="matrix(1 0 0 -1 0 42.25)">
			<stop  offset="0" style="stop-color:#7DD7ED"/>
			<stop  offset="1" style="stop-color:#2466BC"/>
		</linearGradient>
		<path class="st1" d="M6.1765199,7.5563049c2.2142997-0.4115,16.6338997-1.3044,23.1380997,12.5760994
			c1.2477016-1.9260998,3.0160999-5.6878996,2.884901-5.9371996c-2.0063-6.5875998-10.4668999-12.2612-21.6464996-13.0524998
			C8.4800196,4.7906046,6.1765199,7.5563049,6.1765199,7.5563049z"/>
		
			<linearGradient id="SVGID_2_" gradientUnits="userSpaceOnUse" x1="1.9538229" y1="26.3211803" x2="15.5271196" y2="26.3211803" gradientTransform="matrix(1 0 0 -1 0 42.25)">
			<stop  offset="0" style="stop-color:#7DD7ED"/>
			<stop  offset="1" style="stop-color:#2466BC"/>
		</linearGradient>
		<path class="st2" d="M5.1413198,1.4799048c0,0-4.9677997,6.8930001-2.4996998,27.3606014
			c0.7695,2.7491989,9.2868004,1.7697983,9.2868004,1.7697983C10.5369196,30.779705,4.42662,20.4418049,9.5966196,7.2611046
			c1.4171-3.6132998,3.8004999-5.5068998,5.9305-5.4292998C8.1926203,0.3732048,5.1413198,1.4799048,5.1413198,1.4799048z"/>
		
			<linearGradient id="SVGID_3_" gradientUnits="userSpaceOnUse" x1="9.9862261" y1="18.7453995" x2="41.6399155" y2="18.7453995" gradientTransform="matrix(1 0 0 -1 0 42.25)">
			<stop  offset="0" style="stop-color:#7DD7ED"/>
			<stop  offset="1" style="stop-color:#2466BC"/>
		</linearGradient>
		<path class="st3" d="M2.4054201,26.6938057c0,0,0.6338999,7.2748985,2.5367,9.2397003
			c0.8768997,0.9054985,23.2693005,3.3866997,28.5362015-13.9356022c0.8819008-2.9006996,0.8013992-5.105299-0.531002-7.5733986
			c-1.3518982-2.5045004-2.7686996-4.0128002-2.7686996-4.0128002s2.1896019,3.5577993-1.2733994,9.4848003
			c-3.4353008,5.8801994-11.7436008,10.3064995-18.2350006,10.4305992
			C5.7808199,30.420105,3.0476201,28.5954056,2.4054201,26.6938057z"/>
	</g>
	<g>
		<path d="M44.4285698,23.125h9v1h-7v4h7v2h-7v4h8v2h-10V23.125z"/>
		<path d="M67.4285736,33.2096062V27.125h-1v-1h1v-3h2v3h3v1h-3v5.8991051c0,1.1669998,0.6478958,1.5932007,1.6112976,1.5932007
			c0.4814987,0,0.3887024-0.092701,1.3887024-0.3334999v1.2226982c-1,0.2593002-1.3235016,0.4071999-2.0090027,0.4071999
			C68.8819733,35.9137039,67.4285736,35.1544037,67.4285736,33.2096062z"/>
		<path d="M74.4285736,26.125h2v2.5460052c1-1.5932007,2-2.7417011,4-2.6674004V27.125h-0.4407501
			c-2.0932999,0-3.5592499,1.9167042-3.5592499,4.8063049V36.125h-2V26.125z"/>
		<path d="M86.0815201,34.5196037c1.3154984,0,2.2416992-0.4328003,3.0195999-1.2477989l0.8890991,0.8485985
			c-0.9634018,1.0746994-2.1303024,1.8229523-3.9458008,1.8229523c-2.6302948,0-4.778801-2.0060272-4.778801-4.9884262
			c0-2.7787991,1.9448013-4.9949627,4.5938034-4.9949627c2.8343964,0,4.4643021,2.0544662,4.4643021,4.8703671
			c0,0.1294003,0,0.2946663-0.0185013,0.2946663h-7.5948029C82.9141235,33.125,84.396019,34.5196037,86.0815201,34.5196037z
			 M88.8789215,30.125c-0.1665039-2-1.1669998-3.2231007-3.0566025-3.2231007c-1.6484985,0-2.9081955,1.2231007-3.1119003,3.2231007
			H88.8789215z"/>
		<path d="M92.4285736,26.125h2v1.6569042c0-0.9447994,1.3926697-1.8153992,3.0039749-1.8153992
			c1.5561981,0,2.5120316,0.8334999,3.0305328,1.9081993c0.6856003-1.0562,1.7227478-1.9081993,3.3902435-1.9081993
			c2.2041016,0,3.5752487,1.4818993,3.5752487,3.8530006V36.125h-1v-5.9719944c0-1.8526001-1.360405-2.8896999-2.9165039-2.8896999
			c-1.4448013,0-3.0834961,1.0741997-3.0834961,2.9638996V36.125h-1v-6.0090961c0-1.7968998-0.8792038-2.8525982-2.398201-2.8525982
			c-1.5190048,0-2.601799,1.2592983-2.601799,3.0190983V36.125h-2V26.125z"/>
		<path d="M114.6611176,34.5196037c1.315506,0,2.2416992-0.4328003,3.0195999-1.2477989l0.8890991,0.8485985
			c-0.9633942,1.0746994-2.130394,1.8229523-3.9452972,1.8229523c-2.6308975,0-4.7792969-2.0060272-4.7792969-4.9884262
			c0-2.7787991,1.9447937-4.9949627,4.5937958-4.9949627c2.834404,0,4.4643021,2.0544662,4.4643021,4.8703671
			c0,0.1294003,0,0.2946663-0.0185013,0.2946663h-7.5948029C111.4936218,33.125,112.9756165,34.5196037,114.6611176,34.5196037z
			 M117.458519,30.125c-0.1669998-2-1.1669998-3.2231007-3.0567017-3.2231007c-1.6483994,0-2.9081955,1.2231007-3.1118011,3.2231007
			H117.458519z"/>
	</g>
	<g>
		<path class="st4" d="M58.9512215,31.0529003L55.6865196,26.125h2.9399986l1.8034019,2.8136005L62.2517204,26.125h2.8677025
			l-3.2647018,4.8365002L67.3362198,39.125h-2.9400024l-4.0201988-6.0491982L58.4280205,36.125h-2.8676987L58.9512215,31.0529003z"
			/>
	</g>
</g>
</svg>
